<?xml version="1.0" standalone="no"?>
<!DOCTYPE svg PUBLIC "-//W3C//DTD SVG 20010904//EN"
 "http://www.w3.org/TR/2001/REC-SVG-20010904/DTD/svg10.dtd">
<svg version="1.0" xmlns="http://www.w3.org/2000/svg"
 width="500.000000pt" height="500.000000pt" viewBox="0 0 500.000000 500.000000"
 preserveAspectRatio="xMidYMid meet">
<metadata>
Created by potrace 1.14, written by Peter Selinger 2001-2017
</metadata>
<g transform="translate(0.000000,500.000000) scale(0.100000,-0.100000)"
fill="#000000" stroke="none">
<path d="M2309 4996 c-2 -2 -36 -7 -75 -10 -278 -24 -599 -121 -879 -264 -591
-302 -1048 -847 -1245 -1488 -42 -135 -59 -210 -85 -369 -26 -160 -27 -535 -1
-705 60 -406 206 -773 440 -1105 151 -215 404 -462 629 -614 135 -91 331 -197
447 -243 231 -91 487 -156 680 -173 41 -4 86 -9 100 -11 31 -5 298 -4 360 1
553 47 1049 255 1455 610 294 256 545 608 674 945 18 47 37 94 41 105 41 94
99 343 124 526 13 102 16 530 3 589 -3 14 -8 45 -11 70 -32 243 -114 507 -232
745 -72 144 -90 175 -197 334 -74 110 -119 163 -261 305 -173 174 -289 269
-460 376 -267 168 -614 301 -901 345 -22 3 -71 11 -110 16 -65 10 -488 23
-496 15z m486 -215 c437 -62 830 -233 1160 -506 55 -46 125 -108 154 -139 l55
-56 -22 -22 c-76 -82 -66 -222 23 -295 l37 -31 -62 -193 c-67 -212 -205 -642
-278 -867 -42 -132 -48 -143 -66 -136 -46 16 -150 9 -194 -12 l-42 -22 -79 77
c-44 42 -184 177 -312 301 -128 124 -288 279 -356 344 -94 91 -122 124 -117
138 3 10 7 38 9 62 10 128 -137 226 -252 168 -127 -65 -138 -228 -21 -309 41
-28 90 -34 158 -21 39 8 4 39 461 -406 96 -94 235 -228 307 -298 l131 -127
-20 -52 c-21 -54 -24 -128 -6 -163 5 -10 5 -22 0 -27 -7 -7 -216 -85 -253 -94
-8 -2 -28 -9 -45 -15 -16 -7 -86 -32 -155 -56 -69 -24 -177 -62 -240 -85 -124
-44 -157 -55 -915 -324 -927 -328 -1004 -355 -1010 -355 -4 0 -17 13 -31 29
-55 66 -173 88 -251 47 l-33 -17 -21 33 c-119 190 -258 591 -284 824 -4 32
-10 63 -12 68 -10 16 -11 409 -2 496 92 853 647 1584 1444 1900 128 51 337
110 440 125 22 3 45 8 52 10 7 2 52 7 100 11 48 3 90 8 92 10 8 8 380 -4 456
-15z m1683 -1120 c133 -223 243 -530 281 -776 6 -38 13 -86 17 -105 3 -19 8
-136 9 -260 2 -199 0 -241 -21 -365 -60 -350 -166 -627 -345 -905 -116 -178
-320 -405 -484 -535 -171 -137 -426 -284 -605 -350 -41 -15 -84 -31 -95 -36
-64 -26 -297 -83 -390 -95 -22 -3 -65 -9 -95 -14 -73 -11 -429 -10 -505 1 -33
4 -82 11 -110 14 -72 9 -305 69 -410 105 -127 45 -373 167 -488 245 -137 91
-225 162 -350 284 l-107 105 23 25 c37 41 54 73 61 118 5 25 14 44 24 48 22 9
254 91 652 232 179 64 388 138 465 165 77 27 214 76 305 108 91 32 269 95 395
140 127 45 259 92 295 105 36 12 169 60 295 105 177 63 233 79 245 70 45 -32
124 -60 173 -60 53 0 131 30 173 67 51 45 84 122 84 198 0 50 -27 124 -56 156
-11 12 -12 22 -5 40 6 13 38 112 71 219 34 107 79 249 100 315 22 66 59 183
84 260 24 77 65 203 89 279 l45 140 39 11 c21 7 48 17 58 23 11 6 22 12 25 12
3 0 29 -40 58 -89z"/>
<path d="M1382 2760 c-12 -3 -18 -12 -16 -24 1 -11 0 -24 -3 -30 -9 -13 -10
-56 -2 -56 8 0 5 -42 -4 -56 -3 -6 -3 -14 0 -18 11 -11 12 -60 1 -73 -6 -7 -5
-14 3 -18 8 -6 7 -10 -2 -16 -11 -7 -11 -9 -1 -9 9 0 10 -5 2 -19 -6 -12 -6
-22 -1 -25 10 -7 9 -25 -2 -42 -3 -6 -3 -14 1 -18 11 -11 8 -110 -3 -118 -6
-5 -6 -8 2 -8 6 0 10 -9 8 -20 -4 -20 4 -23 66 -23 9 0 16 -6 16 -13 0 -11 -3
-11 -16 -1 -14 10 -14 10 -3 -5 15 -18 46 -13 35 6 -3 6 -3 8 2 4 4 -4 15 -2
24 5 14 10 14 10 4 -4 -7 -9 -10 -18 -7 -21 3 -3 0 -9 -7 -14 -8 -5 -10 -3 -4
7 8 12 6 12 -8 0 -19 -15 -23 -26 -5 -15 8 5 9 1 5 -12 -6 -16 -5 -17 5 -4 16
20 36 19 48 0 5 -8 10 -10 10 -4 0 16 -25 35 -35 26 -4 -4 -2 3 4 16 6 12 17
22 24 21 9 0 9 -2 0 -6 -18 -7 -16 -16 8 -31 19 -12 20 -11 14 7 -4 15 -2 21
9 21 8 0 18 -4 21 -10 3 -5 0 -8 -7 -7 -7 2 -10 2 -6 0 5 -3 3 -14 -3 -26 -8
-19 -8 -20 3 -7 16 19 54 20 50 2 -1 -8 2 -11 8 -7 8 5 7 11 -1 21 -7 9 -8 14
-1 14 6 0 14 -4 17 -10 3 -5 12 -10 18 -10 8 0 8 3 -1 9 -10 6 -8 10 10 14 12
4 23 5 24 4 0 -1 8 3 16 10 11 10 17 8 31 -7 18 -22 37 -26 37 -9 0 5 -6 7
-12 3 -10 -5 -10 -4 -1 6 12 13 37 5 29 -9 -3 -4 1 -8 9 -8 8 0 13 4 12 8 -1
4 7 15 18 23 16 13 17 15 2 10 -13 -5 -16 -2 -11 12 5 15 4 16 -4 4 -6 -8 -9
-17 -6 -21 2 -4 0 -10 -5 -13 -5 -3 -11 3 -14 14 -3 13 -1 18 6 13 6 -4 8 0 4
9 -3 9 0 21 6 28 10 10 8 12 -8 6 -19 -6 -19 -5 -2 8 18 14 24 32 7 21 -9 -5
-11 2 -10 30 0 3 -7 19 -15 35 -9 17 -12 30 -8 30 4 0 2 5 -4 11 -6 6 -9 19
-6 28 4 13 3 14 -5 1 -6 -8 -7 -19 -2 -25 13 -15 13 -27 1 -34 -11 -7 -99 -5
-136 2 -11 3 -27 -1 -35 -7 -8 -6 -3 3 10 20 21 26 27 28 36 16 8 -11 13 -12
18 -4 4 7 2 12 -4 12 -6 0 -8 5 -5 11 5 6 13 3 22 -10 8 -12 19 -21 26 -21 8
0 8 3 -1 12 -7 7 -12 16 -12 22 0 5 6 2 13 -9 8 -10 19 -15 25 -11 6 3 14 1
18 -5 4 -7 3 -9 -2 -6 -6 3 -16 1 -24 -5 -13 -8 -12 -9 1 -5 9 3 22 0 28 -6 8
-8 9 -5 6 11 -2 12 -7 27 -11 34 -4 6 -3 8 3 5 13 -8 26 20 17 35 -10 16 18
28 40 16 17 -8 19 -8 9 2 -6 7 -10 18 -9 24 2 6 1 8 -1 4 -7 -11 -41 -10 -48
2 -3 6 -1 10 5 10 6 0 8 10 5 23 -4 16 1 29 19 47 24 22 26 22 27 4 1 -10 1
-23 0 -27 -1 -5 3 -6 8 -2 9 5 6 25 -6 48 -3 4 -10 4 -16 -1 -7 -5 -20 -8 -30
-7 -15 3 -16 1 -6 -11 9 -11 7 -14 -15 -12 -14 1 -26 6 -26 11 0 5 6 7 13 4 7
-3 13 3 14 14 2 17 0 18 -22 3 -22 -14 -24 -14 -35 8 -10 20 -9 21 3 6 12 -15
16 -16 35 -2 18 12 22 12 29 0 12 -21 54 -2 47 21 -5 15 -4 15 4 3 6 -8 8 -18
6 -22 -3 -4 -1 -8 5 -8 6 0 10 10 9 23 -2 50 2 78 12 72 6 -3 10 -2 10 2 0 5
-10 14 -22 22 -20 12 -21 12 -11 0 8 -10 9 -20 3 -29 -8 -12 -10 -10 -11 8 -1
21 -5 52 -8 70 -1 8 -368 10 -399 2z m219 -177 c-12 -20 -14 -14 -5 12 4 9 9
14 11 11 3 -2 0 -13 -6 -23z m89 -40 c0 -2 -5 -1 -12 3 -7 5 -27 8 -45 7 -29
0 -31 2 -22 18 12 23 24 25 15 4 -3 -8 -2 -15 3 -15 16 0 20 13 9 34 -6 12 2
7 20 -13 18 -18 32 -35 32 -38z m-106 19 c3 -5 -1 -9 -9 -9 -8 0 -12 4 -9 9 3
4 7 8 9 8 2 0 6 -4 9 -8z m121 -162 c3 -5 1 -10 -4 -10 -6 0 -11 5 -11 10 0 6
2 10 4 10 3 0 8 -4 11 -10z m-115 -24 c0 -2 -8 -10 -17 -17 -16 -13 -17 -12
-4 4 13 16 21 21 21 13z m9 -210 c9 -10 8 -15 -2 -19 -8 -3 -13 3 -13 14 0 23
0 23 15 5z m40 5 c7 -5 9 -11 5 -14 -5 -3 -15 1 -22 9 -14 16 -5 18 17 5z"/>
<path d="M2031 2760 c-65 -4 -72 -7 -58 -19 10 -7 17 -22 17 -33 0 -10 4 -17
9 -13 12 7 42 -35 34 -48 -3 -6 -1 -7 5 -3 11 6 38 -31 34 -46 -1 -5 5 -8 14
-8 8 0 12 -4 9 -10 -3 -5 -1 -10 5 -10 6 0 8 -5 4 -12 -4 -7 -3 -8 4 -4 6 3
16 -3 22 -14 6 -12 20 -30 31 -41 19 -19 16 -54 -5 -42 -6 3 -8 3 -4 -2 7 -7
-57 -96 -74 -103 -5 -2 -8 -8 -8 -13 0 -5 -25 -40 -56 -77 l-55 -67 41 -3 c28
-2 38 -7 33 -15 -4 -8 -2 -8 9 1 17 14 39 13 50 -3 5 -6 8 -5 8 3 0 18 21 15
36 -5 13 -17 14 -17 8 0 -5 13 -1 17 21 17 18 0 24 -4 19 -12 -6 -10 -4 -10 7
0 14 13 123 17 115 4 -3 -5 1 -9 9 -9 8 0 12 4 9 9 -3 4 6 8 20 8 14 0 26 -6
26 -12 0 -10 2 -10 9 0 4 8 19 12 32 10 19 -2 24 2 25 19 1 12 -2 20 -6 18
-13 -8 -82 84 -74 97 4 7 4 10 -1 6 -4 -4 -14 -3 -22 3 -16 14 -18 33 -1 23 7
-4 8 -3 4 5 -4 6 -11 9 -15 6 -5 -2 -16 4 -26 15 -10 11 -15 20 -10 20 4 0 -4
9 -18 20 -16 13 -24 28 -22 40 3 14 -1 17 -12 13 -11 -4 -14 -2 -9 5 4 7 13
12 21 12 8 0 17 5 21 12 5 8 2 9 -10 5 -17 -7 36 64 96 127 15 16 30 38 34 48
3 10 9 18 13 18 11 0 43 60 32 61 -66 3 -343 3 -400 -1z m24 -41 c-4 -6 1 -5
13 2 24 15 54 5 46 -16 -3 -8 -1 -15 4 -15 6 0 9 8 7 18 -3 15 3 19 31 20 19
1 33 -2 30 -7 -3 -4 1 -8 9 -8 8 0 12 4 9 9 -8 13 108 7 125 -6 11 -8 13 -8 7
2 -5 8 0 12 13 12 12 0 21 -4 21 -10 0 -5 -4 -10 -9 -10 -5 0 -12 -8 -15 -17
-3 -10 -22 -36 -41 -57 -19 -22 -35 -42 -35 -45 0 -3 -16 -24 -36 -46 -34 -39
-35 -39 -50 -20 -8 11 -12 25 -10 32 3 6 -1 10 -7 7 -7 -2 -23 9 -35 26 -19
25 -20 31 -8 36 8 3 17 13 21 22 5 13 2 12 -15 -3 -20 -18 -21 -18 -40 3 -22
23 -26 42 -10 42 6 0 10 -4 10 -10 0 -5 5 -10 12 -10 6 0 3 9 -7 20 -13 14
-14 20 -5 20 7 0 10 3 6 7 -4 5 -14 -1 -22 -11 -11 -16 -16 -17 -29 -6 -19 16
-19 30 1 30 8 0 12 -5 9 -11z m168 -302 c4 3 7 -1 7 -10 0 -9 5 -17 10 -17 6
0 10 -12 11 -27 0 -25 1 -26 9 -8 5 11 9 15 9 10 1 -6 12 -23 26 -38 14 -15
24 -27 21 -27 -3 0 8 -15 25 -32 16 -18 29 -35 29 -39 0 -3 -76 -6 -170 -6
-93 0 -170 2 -170 4 0 13 54 72 61 67 5 -3 8 -2 7 3 -5 16 46 83 59 78 7 -2
15 1 19 7 4 7 3 8 -4 4 -17 -10 -15 6 5 33 15 22 17 22 28 8 7 -9 15 -14 18
-10z"/>
<path d="M2229 2703 c-13 -16 -12 -17 4 -4 16 13 21 21 13 21 -2 0 -10 -8 -17
-17z"/>
<path d="M2179 2698 c-5 -18 -6 -38 -1 -34 7 8 12 36 6 36 -2 0 -4 -1 -5 -2z"/>
<path d="M2255 2689 c-4 -6 -5 -12 -2 -15 2 -3 7 2 10 11 7 17 1 20 -8 4z"/>
<path d="M2145 2680 c3 -5 8 -10 11 -10 2 0 4 5 4 10 0 6 -5 10 -11 10 -5 0
-7 -4 -4 -10z"/>
<path d="M2306 2682 c-3 -5 1 -9 9 -9 8 0 12 4 9 9 -3 4 -7 8 -9 8 -2 0 -6 -4
-9 -8z"/>
<path d="M2110 2660 c-9 -6 -10 -10 -3 -10 6 0 15 5 18 10 8 12 4 12 -15 0z"/>
<path d="M2176 2622 c-3 -5 1 -9 9 -9 8 0 12 4 9 9 -3 4 -7 8 -9 8 -2 0 -6 -4
-9 -8z"/>
<path d="M2192 2398 c10 -8 14 -19 10 -23 -4 -5 -1 -5 6 -1 18 11 15 -3 -6
-22 -9 -10 -13 -14 -8 -9 15 11 28 8 20 -5 -4 -6 -3 -8 3 -5 19 12 8 49 -17
64 -21 13 -22 13 -8 1z"/>
<path d="M2119 2308 c-6 -21 -5 -38 1 -38 5 0 8 9 7 20 -1 17 -5 26 -8 18z"/>
<path d="M2150 2296 c7 -7 13 -7 20 0 6 6 3 10 -10 10 -13 0 -16 -4 -10 -10z"/>
<path d="M2315 2261 c-3 -5 -2 -12 3 -15 5 -3 9 1 9 9 0 17 -3 19 -12 6z"/>
<path d="M2133 2245 c0 -8 4 -15 9 -15 4 0 8 4 8 9 0 6 -4 12 -8 15 -5 3 -9
-1 -9 -9z"/>
<path d="M715 2574 c0 -102 -4 -188 -8 -191 -4 -3 -4 -10 1 -16 10 -14 10 -27
-1 -44 -4 -6 -4 -14 1 -17 4 -2 7 -30 7 -60 -1 -33 3 -56 9 -57 6 -1 26 -2 43
-3 38 -2 62 -20 42 -31 -7 -5 -10 -4 -5 3 3 6 -1 9 -9 8 -16 -2 -21 -15 -7
-17 4 0 13 -6 21 -12 12 -9 13 -9 7 1 -8 13 19 12 42 -2 8 -5 18 -3 25 4 9 10
9 11 -2 5 -9 -5 -12 -4 -7 3 5 8 2 10 -8 6 -11 -4 -16 0 -16 12 0 15 2 16 9 5
7 -11 11 -10 21 5 9 16 11 16 6 2 -3 -10 -1 -20 4 -23 6 -4 10 2 11 12 0 10 3
13 5 6 3 -7 0 -21 -6 -33 -11 -20 -10 -21 9 -10 19 10 24 7 23 -10 0 -3 9 -7
20 -7 20 -2 20 -1 -3 15 -13 9 -27 16 -31 15 -4 -2 -5 4 -2 12 5 13 8 13 21 0
13 -13 33 -13 33 1 0 3 -4 3 -9 -1 -5 -3 -12 -1 -15 4 -4 5 2 8 11 6 10 -1 17
-9 15 -19 -2 -9 -1 -16 1 -16 12 0 58 29 58 36 1 5 3 11 6 14 4 3 2 -1 -2 -9
-6 -11 -4 -13 9 -8 10 4 15 3 11 -3 -3 -6 1 -10 9 -10 8 0 18 5 21 10 8 13 25
13 25 -1 0 -5 -4 -8 -9 -5 -5 3 -15 -2 -22 -12 -12 -15 -12 -16 2 -5 16 13 29
8 29 -9 0 -5 -5 -6 -12 -2 -7 4 -8 3 -4 -5 10 -15 29 -3 22 15 -3 8 1 14 10
14 9 0 12 -5 8 -12 -5 -7 -3 -8 5 -4 7 5 10 15 7 23 -3 8 -2 11 4 8 5 -3 16 7
25 22 12 21 14 23 10 6 -4 -16 0 -25 17 -33 22 -11 22 -10 4 4 -11 9 -15 16
-9 16 7 0 11 9 10 20 -1 11 -4 20 -8 20 -4 0 -9 7 -13 15 -3 8 0 14 6 12 17
-3 22 34 6 44 -10 7 -10 9 2 10 10 0 8 3 -5 9 -15 7 -16 9 -4 9 9 1 23 9 30
18 10 11 10 14 2 9 -7 -4 -13 -2 -13 3 0 6 5 11 12 11 6 0 9 2 6 5 -3 3 -13 3
-22 -1 -12 -4 -14 -10 -6 -19 7 -8 6 -12 -3 -12 -7 0 -13 12 -13 27 -1 19 3
27 14 26 8 0 17 6 19 14 4 13 3 13 -6 0 -18 -25 -30 1 -33 70 -1 51 1 64 12
62 11 -3 11 0 1 12 -7 8 -11 20 -10 28 1 7 1 53 0 101 -1 79 -3 88 -18 85 -14
-2 -18 -12 -16 -38 1 -19 -3 -38 -10 -42 -7 -4 -8 -8 -2 -8 12 0 14 -128 2
-147 -4 -6 -3 -14 3 -18 7 -4 6 -13 -1 -27 -6 -11 -7 -18 -2 -15 6 4 10 -10 9
-32 -1 -28 -5 -38 -16 -36 -8 1 -15 7 -15 14 0 6 -6 16 -14 21 -12 7 -12 11
-2 24 8 9 10 16 6 16 -4 0 -14 -8 -22 -17 -13 -17 -14 -16 -10 4 6 25 -8 40
-19 22 -5 -8 -3 -9 6 -4 9 6 11 4 6 -4 -9 -13 -21 -6 -21 12 -1 7 -7 11 -14 9
-7 -1 -10 2 -6 8 3 5 1 10 -5 10 -6 0 -8 5 -4 12 4 7 3 8 -5 4 -11 -7 -81 58
-81 75 0 5 -6 9 -12 9 -15 1 -108 87 -108 101 0 5 -4 9 -8 9 -5 0 -19 9 -32
20 -13 11 -30 20 -39 20 -14 0 -16 -22 -16 -186z m295 -409 c0 -1 -6 -7 -13
-13 -10 -8 -13 -6 -13 7 0 11 6 17 13 14 7 -3 13 -6 13 -8z"/>
<path d="M827 2699 c7 -7 15 -10 18 -7 3 3 -2 9 -12 12 -14 6 -15 5 -6 -5z"/>
<path d="M2430 2700 c-9 -6 -10 -10 -3 -10 6 0 15 5 18 10 8 12 4 12 -15 0z"/>
<path d="M2394 2678 c-4 -7 -4 -10 1 -6 11 11 47 -11 39 -24 -4 -7 -3 -8 5 -4
14 9 7 22 -19 36 -13 7 -21 7 -26 -2z"/>
<path d="M871 2664 c-1 -6 7 -18 17 -27 18 -16 19 -16 17 3 -1 11 -5 23 -10
27 -4 5 -5 2 -1 -4 4 -7 3 -13 -3 -13 -5 0 -12 6 -14 13 -3 7 -6 7 -6 1z"/>
<path d="M1846 2658 c3 -5 10 -6 15 -3 13 9 11 12 -6 12 -8 0 -12 -4 -9 -9z"/>
<path d="M2393 2652 c-7 -5 -3 -11 13 -19 23 -11 24 -10 13 5 -8 9 -14 18 -14
19 0 1 -6 -1 -12 -5z"/>
<path d="M1815 2640 c-3 -5 -2 -10 4 -10 5 0 13 5 16 10 3 6 2 10 -4 10 -5 0
-13 -4 -16 -10z"/>
<path d="M935 2620 c3 -5 8 -10 11 -10 2 0 4 5 4 10 0 6 -5 10 -11 10 -5 0 -7
-4 -4 -10z"/>
<path d="M1195 2621 c-3 -5 -2 -12 3 -15 5 -3 9 1 9 9 0 17 -3 19 -12 6z"/>
<path d="M1226 2618 c3 -5 10 -6 15 -3 13 9 11 12 -6 12 -8 0 -12 -4 -9 -9z"/>
<path d="M1830 2589 c-22 -18 -22 -19 -3 -10 12 6 25 16 28 21 9 15 3 12 -25
-11z"/>
<path d="M2394 2594 c1 -8 4 -15 7 -16 2 -2 3 -1 2 1 -2 2 2 9 7 16 7 8 5 12
-4 12 -8 0 -13 -6 -12 -13z"/>
<path d="M2348 2583 c6 -2 18 -2 25 0 6 3 1 5 -13 5 -14 0 -19 -2 -12 -5z"/>
<path d="M2304 2558 c-12 -14 -13 -18 -3 -10 9 6 18 10 21 7 2 -3 5 2 5 10 0
19 0 19 -23 -7z"/>
<path d="M990 2555 c0 -8 4 -15 10 -15 5 0 7 7 4 15 -4 8 -8 15 -10 15 -2 0
-4 -7 -4 -15z"/>
<path d="M1750 2521 c0 -5 5 -13 10 -16 6 -3 10 -2 10 4 0 5 -4 13 -10 16 -5
3 -10 2 -10 -4z"/>
<path d="M2296 2518 c3 -5 10 -6 15 -3 13 9 11 12 -6 12 -8 0 -12 -4 -9 -9z"/>
<path d="M1203 2498 c-11 -19 -13 -39 -1 -32 5 3 7 9 4 12 -3 3 -1 11 5 19 6
7 9 13 6 13 -3 0 -9 -6 -14 -12z"/>
<path d="M2114 2496 c1 -8 5 -18 8 -22 4 -3 5 1 4 10 -1 8 -5 18 -8 22 -4 3
-5 -1 -4 -10z"/>
<path d="M2289 2493 c-18 -4 -41 -47 -32 -57 13 -13 25 -5 19 11 -5 11 1 23
16 35 13 10 21 17 18 17 -3 -1 -12 -3 -21 -6z"/>
<path d="M1117 2439 c7 -7 15 -10 18 -7 3 3 -2 9 -12 12 -14 6 -15 5 -6 -5z"/>
<path d="M1193 2431 c0 -11 5 -18 9 -15 4 3 5 11 1 19 -7 21 -12 19 -10 -4z"/>
<path d="M1758 2444 c-6 -6 8 -50 21 -66 3 -4 6 6 6 22 0 29 -16 55 -27 44z
m20 -29 c-3 -3 -9 2 -12 12 -6 14 -5 15 5 6 7 -7 10 -15 7 -18z"/>
<path d="M2296 2418 c3 -4 11 -5 19 -1 21 7 19 12 -4 10 -11 0 -18 -5 -15 -9z"/>
<path d="M1230 2399 c0 -5 5 -7 10 -4 6 3 10 8 10 11 0 2 -4 4 -10 4 -5 0 -10
-5 -10 -11z"/>
<path d="M1606 2362 c-3 -5 1 -9 9 -9 8 0 12 4 9 9 -3 4 -7 8 -9 8 -2 0 -6 -4
-9 -8z"/>
<path d="M1645 2360 c-3 -5 -5 -10 -3 -11 33 -8 38 -7 27 7 -14 17 -16 17 -24
4z"/>
<path d="M2355 2361 c-3 -5 -2 -12 3 -15 5 -3 9 1 9 9 0 17 -3 19 -12 6z"/>
<path d="M1786 2338 c3 -5 10 -6 15 -3 13 9 11 12 -6 12 -8 0 -12 -4 -9 -9z"/>
<path d="M1230 2319 c0 -5 -4 -8 -8 -5 -5 3 -9 -1 -9 -8 0 -18 34 -39 42 -26
4 6 1 9 -7 8 -7 -2 -13 4 -13 12 0 8 6 14 13 12 8 -1 11 2 7 8 -8 13 -25 13
-25 -1z"/>
<path d="M1801 2301 c-9 -6 -10 -11 -2 -15 6 -4 11 -2 11 4 0 6 5 8 12 4 7 -4
8 -3 4 4 -8 14 -7 14 -25 3z"/>
<path d="M1212 2250 c-9 -14 -6 -19 14 -29 15 -6 24 -7 24 -1 0 6 -7 10 -15
10 -21 0 -19 18 3 22 15 3 15 4 1 10 -9 4 -20 -1 -27 -12z"/>
<path d="M1815 2241 c3 -2 0 -10 -6 -18 -17 -19 -5 -16 20 6 22 19 22 20 2 18
-11 0 -18 -3 -16 -6z"/>
<path d="M2459 2228 c-5 -18 -6 -38 -1 -34 7 8 12 36 6 36 -2 0 -4 -1 -5 -2z"/>
<path d="M1219 2201 c8 -5 10 -14 6 -22 -6 -11 -5 -11 5 -2 14 12 6 33 -13 33
-8 0 -7 -3 2 -9z"/>
<path d="M1830 2206 c0 -2 7 -7 16 -10 8 -3 12 -2 9 4 -6 10 -25 14 -25 6z"/>
<path d="M749 2163 c-13 -16 -12 -17 4 -4 9 7 17 15 17 17 0 8 -8 3 -21 -13z"/>
<path d="M1396 2165 c4 -8 8 -15 10 -15 2 0 4 7 4 15 0 8 -4 15 -10 15 -5 0
-7 -7 -4 -15z"/>
<path d="M2110 2171 c0 -6 4 -13 10 -16 6 -3 7 1 4 9 -7 18 -14 21 -14 7z"/>
<path d="M2211 2167 c-8 -10 -7 -14 2 -14 8 0 14 6 14 14 0 7 -1 13 -2 13 -2
0 -8 -6 -14 -13z"/>
<path d="M2347 2167 c-3 -8 1 -14 8 -14 7 0 11 6 8 14 -3 7 -6 13 -8 13 -2 0
-5 -6 -8 -13z"/>
<path d="M2390 2170 c0 -5 7 -7 15 -4 8 4 15 8 15 10 0 2 -7 4 -15 4 -8 0 -15
-4 -15 -10z"/>
<path d="M2455 2170 c-4 -6 -10 -8 -14 -6 -4 3 -13 0 -21 -5 -11 -7 -10 -8 8
-6 20 3 56 27 40 27 -4 0 -10 -5 -13 -10z"/>
<path d="M1169 2165 c-1 -3 -2 -8 -3 -12 -1 -5 -5 -15 -11 -23 -7 -12 -6 -13
7 -3 8 7 18 10 21 6 4 -3 7 -1 7 5 0 7 -5 12 -11 12 -5 0 -7 5 -4 10 3 6 4 10
1 10 -3 0 -7 -2 -7 -5z"/>
<path d="M1710 2161 c0 -7 -6 -11 -15 -8 -8 4 -17 1 -21 -6 -4 -7 -4 -9 1 -5
4 4 14 3 22 -4 18 -15 36 2 23 22 -8 12 -10 12 -10 1z"/>
<path d="M2071 2151 c-10 -7 -7 -9 12 -8 14 1 23 5 20 10 -6 9 -15 9 -32 -2z"/>
<path d="M1030 2139 c0 -5 5 -7 12 -3 8 5 9 1 4 -12 -5 -14 -4 -16 5 -7 6 6 8
16 5 22 -9 14 -26 14 -26 0z"/>
<path d="M2030 2139 c0 -5 5 -7 10 -4 6 3 10 8 10 11 0 2 -4 4 -10 4 -5 0 -10
-5 -10 -11z"/>
<path d="M2146 2138 c3 -5 10 -6 15 -3 13 9 11 12 -6 12 -8 0 -12 -4 -9 -9z"/>
<path d="M2187 2139 c7 -7 15 -10 18 -7 3 3 -2 9 -12 12 -14 6 -15 5 -6 -5z"/>
<path d="M2236 2141 c-3 -5 2 -15 12 -22 15 -12 16 -12 5 2 -7 9 -10 19 -6 22
3 4 4 7 0 7 -3 0 -8 -4 -11 -9z"/>
<path d="M776 2118 c3 -5 10 -6 15 -3 13 9 11 12 -6 12 -8 0 -12 -4 -9 -9z"/>
<path d="M830 2126 c0 -2 7 -7 16 -10 8 -3 12 -2 9 4 -6 10 -25 14 -25 6z"/>
<path d="M996 2122 c-2 -4 4 -8 14 -8 10 0 16 4 14 8 -3 4 -9 8 -14 8 -5 0
-11 -4 -14 -8z"/>
<path d="M1670 2122 c0 -5 7 -9 15 -9 8 0 12 4 9 9 -3 4 -9 8 -15 8 -5 0 -9
-4 -9 -8z"/>
<path d="M1718 2111 c-11 -14 -11 -14 3 -3 9 7 23 10 32 6 8 -3 17 -2 20 3 10
16 -43 11 -55 -6z"/>
</g>
</svg>
